<svg aria-hidden="true" style="position: absolute; width: 0; height: 0; overflow: hidden;" version="1.1" xmlns="http://www.w3.org/2000/svg" xmlns:xlink="http://www.w3.org/1999/xlink">
<defs>

<symbol id="icon-bug" viewBox="0 0 33 32">
<path d="M12.884 2.105c-0.926 0.674-1.937 2.021-2.189 2.947-0.421 1.6-0.084 1.684 5.726 1.684s6.147-0.084 5.726-1.684c-0.589-2.105-3.368-4.211-5.726-4.211-0.926 0-2.526 0.589-3.537 1.263z"></path>
<path d="M3.368 6.484c0 0.421 0.758 1.516 1.684 2.358 1.095 1.011 1.684 2.611 1.684 4.716 0 2.947-0.168 3.2-2.695 3.453-3.537 0.337-3.621 1.853-0.168 2.189 2.358 0.253 2.779 0.674 3.284 3.284 0.421 2.526 0.168 3.368-1.684 5.305-1.263 1.347-1.853 2.526-1.432 2.863 0.505 0.253 1.684-0.505 2.611-1.684 1.768-2.189 1.768-2.189 5.137-0.842l3.368 1.347v-8.842c0-7.326 0.253-8.842 1.263-8.842s1.263 1.516 1.263 8.842v8.842l3.116-1.263c2.947-1.263 3.116-1.263 5.305 0.842 2.947 2.779 4.042 1.6 1.179-1.347-1.768-1.853-2.021-2.695-1.6-5.221 0.505-2.611 0.926-3.032 3.284-3.284 3.453-0.337 3.368-1.853-0.084-2.189-2.611-0.253-2.779-0.505-2.779-3.453 0-2.105 0.589-3.705 1.684-4.716 0.926-0.842 1.684-1.937 1.684-2.358 0-0.505-0.842-0.084-1.937 0.926-1.768 1.684-2.863 1.853-11.116 1.853s-9.347-0.168-11.116-1.853c-1.095-1.011-1.937-1.432-1.937-0.926z"></path>
</symbol>

<symbol id="icon-bell" viewBox="0 0 30 32">
<path d="M13.128 2.051c-0.656 0.656-2.38 2.215-3.856 3.282-2.215 1.805-2.708 2.872-3.2 6.81-0.574 5.251-2.133 9.6-4.185 11.897-1.231 1.313-1.231 1.559-0.246 2.215 0.656 0.492 2.872 0.82 4.841 0.82 2.79 0 3.856 0.41 5.169 2.051 0.903 1.149 2.297 2.051 3.118 2.051s2.215-0.903 3.118-2.051c1.313-1.641 2.38-2.051 5.169-2.051 1.969 0 4.185-0.328 4.841-0.82 0.985-0.656 0.985-0.903-0.246-2.215-2.051-2.297-3.61-6.646-4.185-11.897-0.492-3.938-0.985-5.005-3.2-6.81-1.477-1.149-3.2-2.626-3.938-3.282-1.559-1.559-1.723-1.559-3.2 0zM14.523 30.195c-0.903 0.41-3.036-1.477-3.036-2.79 0-0.738 0.656-0.41 1.887 0.738 0.985 0.985 1.477 1.969 1.149 2.051z"></path>
</symbol>

<symbol id="icon-storm" viewBox="0 0 17 32">
<path d="M4.595 0.656c-0.574 0.903-3.774 13.785-3.774 15.18 0 0.985 0.656 0.985 3.692 0.328 2.051-0.492 3.856-0.656 4.103-0.41s-0.328 3.61-1.231 7.631c-0.985 3.938-1.559 7.303-1.313 7.549s1.313-1.559 2.38-3.938c1.149-2.462 3.364-7.303 5.005-10.831s2.954-6.728 2.954-7.138c0-0.328-1.805-0.164-4.103 0.41-2.215 0.574-4.103 0.985-4.103 0.903 0-0.164 0.738-2.38 1.641-5.005s1.641-4.923 1.641-5.087c0-0.574-6.482-0.246-6.892 0.41z"></path>
</symbol>

<symbol id="icon-camera" viewBox="0 0 37 32">
<path d="M0.679 1.649c-0.873 0.776-0.873 25.794-0.097 27.83 0.485 1.358 3.006 1.552 17.939 1.552 20.461 0 18.521 1.842 18.133-16.97l-0.291-12.606-11.345-0.291c-10.958-0.291-11.442-0.194-11.442 1.745 0 2.23 1.745 2.618 2.521 0.485 0.485-1.164 2.521-1.455 9.697-1.455h9.115v6.788l-7.467 0.097c-5.042 0-6.885 0.291-5.624 0.873 4.073 1.552 5.818 6.109 4.17 10.764-1.164 3.394-3.394 4.752-7.564 4.752s-6.4-1.358-7.564-4.752c-1.649-4.655 0.097-9.212 4.17-10.764 1.261-0.582-0.582-0.873-5.527-0.873-6.885-0.097-7.564-0.291-7.564-2.036 0-1.067 0.679-1.939 1.455-1.939s1.455-0.873 1.455-1.939c0-1.939-2.715-2.715-4.17-1.261zM34.909 27.636c0 1.261-2.521 1.455-16.485 1.455s-16.485-0.194-16.485-1.455c0-1.261 2.521-1.455 16.485-1.455s16.485 0.194 16.485 1.455z"></path>
<path d="M15.127 14.158c-0.873 0.776-1.552 2.23-1.552 3.2 0 2.036 2.909 4.945 5.042 4.945 1.842 0 4.655-3.103 4.655-5.139s-2.618-4.558-4.849-4.558c-0.97 0-2.521 0.679-3.297 1.552zM19.394 14.061c0 0.291-0.873 1.358-1.939 2.424s-2.133 1.939-2.424 1.939c-0.97 0-0.485-2.521 0.679-3.685s3.685-1.649 3.685-0.679z"></path>
</symbol>

</defs>
</svg>
